<?xml version="1.0" encoding="UTF-8" standalone="no"?>
<!DOCTYPE svg PUBLIC "-//W3C//DTD SVG 1.1//EN"
 "http://www.w3.org/Graphics/SVG/1.1/DTD/svg11.dtd">
<!-- Generated by graphviz version 2.34.0 (20131130.1757)
 -->
<!-- Title: models_diagram Pages: 1 -->
<svg width="2224pt" height="1352pt"
 viewBox="0.00 0.00 2224.00 1352.00" xmlns="http://www.w3.org/2000/svg" xmlns:xlink="http://www.w3.org/1999/xlink">
<g id="graph0" class="graph" transform="scale(1 1) rotate(0) translate(4 1348)">
<title>models_diagram</title>
<polygon fill="white" stroke="white" points="-4,4 -4,-1348 2220,-1348 2220,4 -4,4"/>
<!-- AfterPhoto -->
<g id="node1" class="node"><title>AfterPhoto</title>
<path fill="none" stroke="black" d="M1412.77,-300.6C1412.77,-300.6 1527.23,-300.6 1527.23,-300.6 1533.23,-300.6 1539.23,-306.6 1539.23,-312.6 1539.23,-312.6 1539.23,-405.4 1539.23,-405.4 1539.23,-411.4 1533.23,-417.4 1527.23,-417.4 1527.23,-417.4 1412.77,-417.4 1412.77,-417.4 1406.77,-417.4 1400.77,-411.4 1400.77,-405.4 1400.77,-405.4 1400.77,-312.6 1400.77,-312.6 1400.77,-306.6 1406.77,-300.6 1412.77,-300.6"/>
<text text-anchor="middle" x="1470" y="-399.4" font-family="Times,serif" font-size="14.00">AfterPhoto</text>
<polyline fill="none" stroke="black" points="1400.77,-392.6 1539.23,-392.6 "/>
<text text-anchor="start" x="1408.77" y="-374.6" font-family="Times,serif" font-size="14.00">id :integer</text>
<text text-anchor="start" x="1408.77" y="-357.8" font-family="Times,serif" font-size="14.00">workorder_id :integer</text>
<text text-anchor="start" x="1408.77" y="-341" font-family="Times,serif" font-size="14.00">photo :string</text>
<text text-anchor="start" x="1408.77" y="-324.2" font-family="Times,serif" font-size="14.00">created_at :datetime</text>
<text text-anchor="start" x="1408.77" y="-307.4" font-family="Times,serif" font-size="14.00">updated_at :datetime</text>
</g>
<!-- Asset -->
<g id="node2" class="node"><title>Asset</title>
<path fill="none" stroke="black" d="M1725.37,-174.6C1725.37,-174.6 1924.63,-174.6 1924.63,-174.6 1930.63,-174.6 1936.63,-180.6 1936.63,-186.6 1936.63,-186.6 1936.63,-531.4 1936.63,-531.4 1936.63,-537.4 1930.63,-543.4 1924.63,-543.4 1924.63,-543.4 1725.37,-543.4 1725.37,-543.4 1719.37,-543.4 1713.37,-537.4 1713.37,-531.4 1713.37,-531.4 1713.37,-186.6 1713.37,-186.6 1713.37,-180.6 1719.37,-174.6 1725.37,-174.6"/>
<text text-anchor="middle" x="1825" y="-525.4" font-family="Times,serif" font-size="14.00">Asset</text>
<polyline fill="none" stroke="black" points="1713.37,-518.6 1936.63,-518.6 "/>
<text text-anchor="start" x="1721.37" y="-500.6" font-family="Times,serif" font-size="14.00">id :integer</text>
<text text-anchor="start" x="1721.37" y="-483.8" font-family="Times,serif" font-size="14.00">name :string</text>
<text text-anchor="start" x="1721.37" y="-467" font-family="Times,serif" font-size="14.00">serial :string</text>
<text text-anchor="start" x="1721.37" y="-450.2" font-family="Times,serif" font-size="14.00">workorder_id :integer</text>
<text text-anchor="start" x="1721.37" y="-433.4" font-family="Times,serif" font-size="14.00">created_at :datetime</text>
<text text-anchor="start" x="1721.37" y="-416.6" font-family="Times,serif" font-size="14.00">updated_at :datetime</text>
<text text-anchor="start" x="1721.37" y="-399.8" font-family="Times,serif" font-size="14.00">status :string</text>
<text text-anchor="start" x="1721.37" y="-383" font-family="Times,serif" font-size="14.00">ready :boolean</text>
<text text-anchor="start" x="1721.37" y="-366.2" font-family="Times,serif" font-size="14.00">water_plumbing :string</text>
<text text-anchor="start" x="1721.37" y="-349.4" font-family="Times,serif" font-size="14.00">drain_plumbing :string</text>
<text text-anchor="start" x="1721.37" y="-332.6" font-family="Times,serif" font-size="14.00">electrical_option :string</text>
<text text-anchor="start" x="1721.37" y="-315.8" font-family="Times,serif" font-size="14.00">lift_over_bar :boolean</text>
<text text-anchor="start" x="1721.37" y="-299" font-family="Times,serif" font-size="14.00">stairs :boolean</text>
<text text-anchor="start" x="1721.37" y="-282.2" font-family="Times,serif" font-size="14.00">open_for_business :boolean</text>
<text text-anchor="start" x="1721.37" y="-265.4" font-family="Times,serif" font-size="14.00">under_permit :boolean</text>
<text text-anchor="start" x="1721.37" y="-248.6" font-family="Times,serif" font-size="14.00">disposition_existing_equipment :text</text>
<text text-anchor="start" x="1721.37" y="-231.8" font-family="Times,serif" font-size="14.00">electrical_panel_location :text</text>
<text text-anchor="start" x="1721.37" y="-215" font-family="Times,serif" font-size="14.00">water_heater_type :string</text>
<text text-anchor="start" x="1721.37" y="-198.2" font-family="Times,serif" font-size="14.00">water_heater_capacity :string</text>
<text text-anchor="start" x="1721.37" y="-181.4" font-family="Times,serif" font-size="14.00">closest_account :string</text>
</g>
<!-- AssetPhoto -->
<g id="node3" class="node"><title>AssetPhoto</title>
<path fill="none" stroke="black" d="M1619.49,-9.6C1619.49,-9.6 1728.51,-9.6 1728.51,-9.6 1734.51,-9.6 1740.51,-15.6 1740.51,-21.6 1740.51,-21.6 1740.51,-114.4 1740.51,-114.4 1740.51,-120.4 1734.51,-126.4 1728.51,-126.4 1728.51,-126.4 1619.49,-126.4 1619.49,-126.4 1613.49,-126.4 1607.49,-120.4 1607.49,-114.4 1607.49,-114.4 1607.49,-21.6 1607.49,-21.6 1607.49,-15.6 1613.49,-9.6 1619.49,-9.6"/>
<text text-anchor="middle" x="1674" y="-108.4" font-family="Times,serif" font-size="14.00">AssetPhoto</text>
<polyline fill="none" stroke="black" points="1607.49,-101.6 1740.51,-101.6 "/>
<text text-anchor="start" x="1615.49" y="-83.6" font-family="Times,serif" font-size="14.00">id :integer</text>
<text text-anchor="start" x="1615.49" y="-66.8" font-family="Times,serif" font-size="14.00">asset_id :integer</text>
<text text-anchor="start" x="1615.49" y="-50" font-family="Times,serif" font-size="14.00">photo :string</text>
<text text-anchor="start" x="1615.49" y="-33.2" font-family="Times,serif" font-size="14.00">created_at :datetime</text>
<text text-anchor="start" x="1615.49" y="-16.4" font-family="Times,serif" font-size="14.00">updated_at :datetime</text>
</g>
<!-- Asset&#45;&gt;AssetPhoto -->
<g id="edge4" class="edge"><title>Asset&#45;&gt;AssetPhoto</title>
<path fill="none" stroke="#04fb02" d="M1725.39,-167.357C1719.56,-156.203 1713.95,-145.459 1708.71,-135.432"/>
<ellipse fill="none" stroke="#04fb02" cx="1727.3" cy="-171.017" rx="4.00002" ry="4.00002"/>
<polygon fill="#04fb02" stroke="#04fb02" points="1708.64,-135.296 1708,-124.349 1706.32,-130.865 1704.01,-126.433 1704.01,-126.433 1704.01,-126.433 1706.32,-130.865 1700.02,-128.517 1708.64,-135.296 1708.64,-135.296"/>
</g>
<!-- Assetnote -->
<g id="node4" class="node"><title>Assetnote</title>
<path fill="none" stroke="black" d="M1921.49,-1.2C1921.49,-1.2 2030.51,-1.2 2030.51,-1.2 2036.51,-1.2 2042.51,-7.2 2042.51,-13.2 2042.51,-13.2 2042.51,-122.8 2042.51,-122.8 2042.51,-128.8 2036.51,-134.8 2030.51,-134.8 2030.51,-134.8 1921.49,-134.8 1921.49,-134.8 1915.49,-134.8 1909.49,-128.8 1909.49,-122.8 1909.49,-122.8 1909.49,-13.2 1909.49,-13.2 1909.49,-7.2 1915.49,-1.2 1921.49,-1.2"/>
<text text-anchor="middle" x="1976" y="-116.8" font-family="Times,serif" font-size="14.00">Assetnote</text>
<polyline fill="none" stroke="black" points="1909.49,-110 2042.51,-110 "/>
<text text-anchor="start" x="1917.49" y="-92" font-family="Times,serif" font-size="14.00">id :integer</text>
<text text-anchor="start" x="1917.49" y="-75.2" font-family="Times,serif" font-size="14.00">content :text</text>
<text text-anchor="start" x="1917.49" y="-58.4" font-family="Times,serif" font-size="14.00">created_at :datetime</text>
<text text-anchor="start" x="1917.49" y="-41.6" font-family="Times,serif" font-size="14.00">updated_at :datetime</text>
<text text-anchor="start" x="1917.49" y="-24.8" font-family="Times,serif" font-size="14.00">user_id :integer</text>
<text text-anchor="start" x="1917.49" y="-8" font-family="Times,serif" font-size="14.00">asset_id :integer</text>
</g>
<!-- Asset&#45;&gt;Assetnote -->
<g id="edge3" class="edge"><title>Asset&#45;&gt;Assetnote</title>
<path fill="none" stroke="#47a69d" d="M1924.58,-167.414C1928.77,-159.401 1932.84,-151.599 1936.75,-144.122"/>
<ellipse fill="none" stroke="#47a69d" cx="1922.7" cy="-171.017" rx="4.00002" ry="4.00002"/>
<polygon fill="#47a69d" stroke="#47a69d" points="1936.97,-143.697 1945.59,-136.917 1939.29,-139.265 1941.6,-134.833 1941.6,-134.833 1941.6,-134.833 1939.29,-139.265 1937.61,-132.75 1936.97,-143.697 1936.97,-143.697"/>
</g>
<!-- Chemical -->
<g id="node8" class="node"><title>Chemical</title>
<path fill="none" stroke="black" d="M1770.49,-1.2C1770.49,-1.2 1879.51,-1.2 1879.51,-1.2 1885.51,-1.2 1891.51,-7.2 1891.51,-13.2 1891.51,-13.2 1891.51,-122.8 1891.51,-122.8 1891.51,-128.8 1885.51,-134.8 1879.51,-134.8 1879.51,-134.8 1770.49,-134.8 1770.49,-134.8 1764.49,-134.8 1758.49,-128.8 1758.49,-122.8 1758.49,-122.8 1758.49,-13.2 1758.49,-13.2 1758.49,-7.2 1764.49,-1.2 1770.49,-1.2"/>
<text text-anchor="middle" x="1825" y="-116.8" font-family="Times,serif" font-size="14.00">Chemical</text>
<polyline fill="none" stroke="black" points="1758.49,-110 1891.51,-110 "/>
<text text-anchor="start" x="1766.49" y="-92" font-family="Times,serif" font-size="14.00">id :integer</text>
<text text-anchor="start" x="1766.49" y="-75.2" font-family="Times,serif" font-size="14.00">name :string</text>
<text text-anchor="start" x="1766.49" y="-58.4" font-family="Times,serif" font-size="14.00">quantity :integer</text>
<text text-anchor="start" x="1766.49" y="-41.6" font-family="Times,serif" font-size="14.00">asset_id :integer</text>
<text text-anchor="start" x="1766.49" y="-24.8" font-family="Times,serif" font-size="14.00">created_at :datetime</text>
<text text-anchor="start" x="1766.49" y="-8" font-family="Times,serif" font-size="14.00">updated_at :datetime</text>
</g>
<!-- Asset&#45;&gt;Chemical -->
<g id="edge1" class="edge"><title>Asset&#45;&gt;Chemical</title>
<path fill="none" stroke="#7aa864" d="M1825,-166.448C1825,-159.196 1825,-152.122 1825,-145.31"/>
<ellipse fill="none" stroke="#7aa864" cx="1825" cy="-170.562" rx="4" ry="4"/>
<polygon fill="#7aa864" stroke="#7aa864" points="1825,-144.833 1829.5,-134.833 1825,-139.833 1825,-134.833 1825,-134.833 1825,-134.833 1825,-139.833 1820.5,-134.834 1825,-144.833 1825,-144.833"/>
</g>
<!-- Option -->
<g id="node16" class="node"><title>Option</title>
<path fill="none" stroke="black" d="M1468.49,-9.6C1468.49,-9.6 1577.51,-9.6 1577.51,-9.6 1583.51,-9.6 1589.51,-15.6 1589.51,-21.6 1589.51,-21.6 1589.51,-114.4 1589.51,-114.4 1589.51,-120.4 1583.51,-126.4 1577.51,-126.4 1577.51,-126.4 1468.49,-126.4 1468.49,-126.4 1462.49,-126.4 1456.49,-120.4 1456.49,-114.4 1456.49,-114.4 1456.49,-21.6 1456.49,-21.6 1456.49,-15.6 1462.49,-9.6 1468.49,-9.6"/>
<text text-anchor="middle" x="1523" y="-108.4" font-family="Times,serif" font-size="14.00">Option</text>
<polyline fill="none" stroke="black" points="1456.49,-101.6 1589.51,-101.6 "/>
<text text-anchor="start" x="1464.49" y="-83.6" font-family="Times,serif" font-size="14.00">id :integer</text>
<text text-anchor="start" x="1464.49" y="-66.8" font-family="Times,serif" font-size="14.00">name :string</text>
<text text-anchor="start" x="1464.49" y="-50" font-family="Times,serif" font-size="14.00">asset_id :integer</text>
<text text-anchor="start" x="1464.49" y="-33.2" font-family="Times,serif" font-size="14.00">created_at :datetime</text>
<text text-anchor="start" x="1464.49" y="-16.4" font-family="Times,serif" font-size="14.00">updated_at :datetime</text>
</g>
<!-- Asset&#45;&gt;Option -->
<g id="edge2" class="edge"><title>Asset&#45;&gt;Option</title>
<path fill="none" stroke="#e5b3ab" d="M1706.94,-176.358C1705.97,-175.562 1704.99,-174.776 1704,-174 1664.67,-143.053 1641.01,-161.588 1598,-136 1596.05,-134.84 1594.1,-133.624 1592.17,-132.362"/>
<ellipse fill="none" stroke="#e5b3ab" cx="1710.25" cy="-179.164" rx="4.00002" ry="4.00002"/>
<polygon fill="#e5b3ab" stroke="#e5b3ab" points="1591.98,-132.235 1586.3,-122.855 1587.87,-129.398 1583.75,-126.56 1583.75,-126.56 1583.75,-126.56 1587.87,-129.398 1581.19,-130.265 1591.98,-132.235 1591.98,-132.235"/>
</g>
<!-- BeforePhoto -->
<g id="node5" class="node"><title>BeforePhoto</title>
<path fill="none" stroke="black" d="M1568.77,-300.6C1568.77,-300.6 1683.23,-300.6 1683.23,-300.6 1689.23,-300.6 1695.23,-306.6 1695.23,-312.6 1695.23,-312.6 1695.23,-405.4 1695.23,-405.4 1695.23,-411.4 1689.23,-417.4 1683.23,-417.4 1683.23,-417.4 1568.77,-417.4 1568.77,-417.4 1562.77,-417.4 1556.77,-411.4 1556.77,-405.4 1556.77,-405.4 1556.77,-312.6 1556.77,-312.6 1556.77,-306.6 1562.77,-300.6 1568.77,-300.6"/>
<text text-anchor="middle" x="1626" y="-399.4" font-family="Times,serif" font-size="14.00">BeforePhoto</text>
<polyline fill="none" stroke="black" points="1556.77,-392.6 1695.23,-392.6 "/>
<text text-anchor="start" x="1564.77" y="-374.6" font-family="Times,serif" font-size="14.00">id :integer</text>
<text text-anchor="start" x="1564.77" y="-357.8" font-family="Times,serif" font-size="14.00">workorder_id :integer</text>
<text text-anchor="start" x="1564.77" y="-341" font-family="Times,serif" font-size="14.00">photo :string</text>
<text text-anchor="start" x="1564.77" y="-324.2" font-family="Times,serif" font-size="14.00">created_at :datetime</text>
<text text-anchor="start" x="1564.77" y="-307.4" font-family="Times,serif" font-size="14.00">updated_at :datetime</text>
</g>
<!-- Branch -->
<g id="node6" class="node"><title>Branch</title>
<path fill="none" stroke="black" d="M979.943,-741.6C979.943,-741.6 1106.06,-741.6 1106.06,-741.6 1112.06,-741.6 1118.06,-747.6 1118.06,-753.6 1118.06,-753.6 1118.06,-846.4 1118.06,-846.4 1118.06,-852.4 1112.06,-858.4 1106.06,-858.4 1106.06,-858.4 979.943,-858.4 979.943,-858.4 973.943,-858.4 967.943,-852.4 967.943,-846.4 967.943,-846.4 967.943,-753.6 967.943,-753.6 967.943,-747.6 973.943,-741.6 979.943,-741.6"/>
<text text-anchor="middle" x="1043" y="-840.4" font-family="Times,serif" font-size="14.00">Branch</text>
<polyline fill="none" stroke="black" points="967.943,-833.6 1118.06,-833.6 "/>
<text text-anchor="start" x="975.943" y="-815.6" font-family="Times,serif" font-size="14.00">id :integer</text>
<text text-anchor="start" x="975.943" y="-798.8" font-family="Times,serif" font-size="14.00">user_id :integer</text>
<text text-anchor="start" x="975.943" y="-782" font-family="Times,serif" font-size="14.00">branch_number :integer</text>
<text text-anchor="start" x="975.943" y="-765.2" font-family="Times,serif" font-size="14.00">created_at :datetime</text>
<text text-anchor="start" x="975.943" y="-748.4" font-family="Times,serif" font-size="14.00">updated_at :datetime</text>
</g>
<!-- Bug -->
<g id="node7" class="node"><title>Bug</title>
<path fill="none" stroke="black" d="M1148.49,-716.4C1148.49,-716.4 1257.51,-716.4 1257.51,-716.4 1263.51,-716.4 1269.51,-722.4 1269.51,-728.4 1269.51,-728.4 1269.51,-871.6 1269.51,-871.6 1269.51,-877.6 1263.51,-883.6 1257.51,-883.6 1257.51,-883.6 1148.49,-883.6 1148.49,-883.6 1142.49,-883.6 1136.49,-877.6 1136.49,-871.6 1136.49,-871.6 1136.49,-728.4 1136.49,-728.4 1136.49,-722.4 1142.49,-716.4 1148.49,-716.4"/>
<text text-anchor="middle" x="1203" y="-865.6" font-family="Times,serif" font-size="14.00">Bug</text>
<polyline fill="none" stroke="black" points="1136.49,-858.8 1269.51,-858.8 "/>
<text text-anchor="start" x="1144.49" y="-840.8" font-family="Times,serif" font-size="14.00">id :integer</text>
<text text-anchor="start" x="1144.49" y="-824" font-family="Times,serif" font-size="14.00">name :string</text>
<text text-anchor="start" x="1144.49" y="-807.2" font-family="Times,serif" font-size="14.00">fixed :boolean</text>
<text text-anchor="start" x="1144.49" y="-790.4" font-family="Times,serif" font-size="14.00">user_id :integer</text>
<text text-anchor="start" x="1144.49" y="-773.6" font-family="Times,serif" font-size="14.00">created_at :datetime</text>
<text text-anchor="start" x="1144.49" y="-756.8" font-family="Times,serif" font-size="14.00">updated_at :datetime</text>
<text text-anchor="start" x="1144.49" y="-740" font-family="Times,serif" font-size="14.00">request_type :text</text>
<text text-anchor="start" x="1144.49" y="-723.2" font-family="Times,serif" font-size="14.00">complete :boolean</text>
</g>
<!-- Comment -->
<g id="node9" class="node"><title>Comment</title>
<path fill="none" stroke="black" d="M937.102,-283.8C937.102,-283.8 1074.9,-283.8 1074.9,-283.8 1080.9,-283.8 1086.9,-289.8 1086.9,-295.8 1086.9,-295.8 1086.9,-422.2 1086.9,-422.2 1086.9,-428.2 1080.9,-434.2 1074.9,-434.2 1074.9,-434.2 937.102,-434.2 937.102,-434.2 931.102,-434.2 925.102,-428.2 925.102,-422.2 925.102,-422.2 925.102,-295.8 925.102,-295.8 925.102,-289.8 931.102,-283.8 937.102,-283.8"/>
<text text-anchor="middle" x="1006" y="-416.2" font-family="Times,serif" font-size="14.00">Comment</text>
<polyline fill="none" stroke="black" points="925.102,-409.4 1086.9,-409.4 "/>
<text text-anchor="start" x="933.102" y="-391.4" font-family="Times,serif" font-size="14.00">id :integer</text>
<text text-anchor="start" x="933.102" y="-374.6" font-family="Times,serif" font-size="14.00">content :text</text>
<text text-anchor="start" x="933.102" y="-357.8" font-family="Times,serif" font-size="14.00">commentable_id :integer</text>
<text text-anchor="start" x="933.102" y="-341" font-family="Times,serif" font-size="14.00">user_id :integer</text>
<text text-anchor="start" x="933.102" y="-324.2" font-family="Times,serif" font-size="14.00">commentable_type :string</text>
<text text-anchor="start" x="933.102" y="-307.4" font-family="Times,serif" font-size="14.00">created_at :datetime</text>
<text text-anchor="start" x="933.102" y="-290.6" font-family="Times,serif" font-size="14.00">updated_at :datetime</text>
</g>
<!-- DayOff -->
<g id="node10" class="node"><title>DayOff</title>
<path fill="none" stroke="black" d="M25.4946,-716.4C25.4946,-716.4 134.505,-716.4 134.505,-716.4 140.505,-716.4 146.505,-722.4 146.505,-728.4 146.505,-728.4 146.505,-871.6 146.505,-871.6 146.505,-877.6 140.505,-883.6 134.505,-883.6 134.505,-883.6 25.4946,-883.6 25.4946,-883.6 19.4946,-883.6 13.4946,-877.6 13.4946,-871.6 13.4946,-871.6 13.4946,-728.4 13.4946,-728.4 13.4946,-722.4 19.4946,-716.4 25.4946,-716.4"/>
<text text-anchor="middle" x="80" y="-865.6" font-family="Times,serif" font-size="14.00">DayOff</text>
<polyline fill="none" stroke="black" points="13.4946,-858.8 146.505,-858.8 "/>
<text text-anchor="start" x="21.4946" y="-840.8" font-family="Times,serif" font-size="14.00">id :integer</text>
<text text-anchor="start" x="21.4946" y="-824" font-family="Times,serif" font-size="14.00">start_date :date</text>
<text text-anchor="start" x="21.4946" y="-807.2" font-family="Times,serif" font-size="14.00">end_date :date</text>
<text text-anchor="start" x="21.4946" y="-790.4" font-family="Times,serif" font-size="14.00">user_id :integer</text>
<text text-anchor="start" x="21.4946" y="-773.6" font-family="Times,serif" font-size="14.00">approved :boolean</text>
<text text-anchor="start" x="21.4946" y="-756.8" font-family="Times,serif" font-size="14.00">created_at :datetime</text>
<text text-anchor="start" x="21.4946" y="-740" font-family="Times,serif" font-size="14.00">updated_at :datetime</text>
<text text-anchor="start" x="21.4946" y="-723.2" font-family="Times,serif" font-size="14.00">do_type :string</text>
</g>
<!-- Document -->
<g id="node11" class="node"><title>Document</title>
<path fill="none" stroke="black" d="M478.495,-741.6C478.495,-741.6 587.505,-741.6 587.505,-741.6 593.505,-741.6 599.505,-747.6 599.505,-753.6 599.505,-753.6 599.505,-846.4 599.505,-846.4 599.505,-852.4 593.505,-858.4 587.505,-858.4 587.505,-858.4 478.495,-858.4 478.495,-858.4 472.495,-858.4 466.495,-852.4 466.495,-846.4 466.495,-846.4 466.495,-753.6 466.495,-753.6 466.495,-747.6 472.495,-741.6 478.495,-741.6"/>
<text text-anchor="middle" x="533" y="-840.4" font-family="Times,serif" font-size="14.00">Document</text>
<polyline fill="none" stroke="black" points="466.495,-833.6 599.505,-833.6 "/>
<text text-anchor="start" x="474.495" y="-815.6" font-family="Times,serif" font-size="14.00">id :integer</text>
<text text-anchor="start" x="474.495" y="-798.8" font-family="Times,serif" font-size="14.00">pdfdoc :string</text>
<text text-anchor="start" x="474.495" y="-782" font-family="Times,serif" font-size="14.00">description :text</text>
<text text-anchor="start" x="474.495" y="-765.2" font-family="Times,serif" font-size="14.00">created_at :datetime</text>
<text text-anchor="start" x="474.495" y="-748.4" font-family="Times,serif" font-size="14.00">updated_at :datetime</text>
</g>
<!-- Document&#45;&gt;Comment -->
<g id="edge10" class="edge"><title>Document&#45;&gt;Comment</title>
<path fill="none" stroke="#a9f90c" d="M539.214,-733.227C547.264,-687.557 565.718,-629.464 608,-598 656.775,-561.704 829.487,-612.294 881,-580 929.851,-549.375 961.468,-492.324 980.681,-443.994"/>
<ellipse fill="none" stroke="#a9f90c" cx="538.528" cy="-737.364" rx="4.00001" ry="4.00001"/>
<polygon fill="#a9f90c" stroke="#a9f90c" points="980.762,-443.785 988.559,-436.074 982.561,-439.12 984.36,-434.455 984.36,-434.455 984.36,-434.455 982.561,-439.12 980.161,-432.836 980.762,-443.785 980.762,-443.785"/>
</g>
<!-- Email -->
<g id="node12" class="node"><title>Email</title>
<path fill="none" stroke="black" d="M11.3223,-292.2C11.3223,-292.2 122.678,-292.2 122.678,-292.2 128.678,-292.2 134.678,-298.2 134.678,-304.2 134.678,-304.2 134.678,-413.8 134.678,-413.8 134.678,-419.8 128.678,-425.8 122.678,-425.8 122.678,-425.8 11.3223,-425.8 11.3223,-425.8 5.32227,-425.8 -0.677734,-419.8 -0.677734,-413.8 -0.677734,-413.8 -0.677734,-304.2 -0.677734,-304.2 -0.677734,-298.2 5.32227,-292.2 11.3223,-292.2"/>
<text text-anchor="middle" x="67" y="-407.8" font-family="Times,serif" font-size="14.00">Email</text>
<polyline fill="none" stroke="black" points="-0.677734,-401 134.678,-401 "/>
<text text-anchor="start" x="7.32227" y="-383" font-family="Times,serif" font-size="14.00">id :integer</text>
<text text-anchor="start" x="7.32227" y="-366.2" font-family="Times,serif" font-size="14.00">address :string</text>
<text text-anchor="start" x="7.32227" y="-349.4" font-family="Times,serif" font-size="14.00">document_id :integer</text>
<text text-anchor="start" x="7.32227" y="-332.6" font-family="Times,serif" font-size="14.00">created_at :datetime</text>
<text text-anchor="start" x="7.32227" y="-315.8" font-family="Times,serif" font-size="14.00">updated_at :datetime</text>
<text text-anchor="start" x="7.32227" y="-299" font-family="Times,serif" font-size="14.00">message :text</text>
</g>
<!-- Document&#45;&gt;Email -->
<g id="edge9" class="edge"><title>Document&#45;&gt;Email</title>
<path fill="none" stroke="#5e982d" d="M526.688,-733.443C518.527,-687.585 499.827,-629.166 457,-598 423.899,-573.912 118.673,-608.203 89,-580 51.1412,-544.017 47.313,-484.131 52.0348,-435.918"/>
<ellipse fill="none" stroke="#5e982d" cx="527.386" cy="-737.614" rx="4.00001" ry="4.00001"/>
<polygon fill="#5e982d" stroke="#5e982d" points="52.0526,-435.758 57.6352,-426.32 52.6078,-430.789 53.163,-425.82 53.163,-425.82 53.163,-425.82 52.6078,-430.789 48.6909,-425.321 52.0526,-435.758 52.0526,-435.758"/>
</g>
<!-- ActsAsTaggableOn::Tagging -->
<g id="node24" class="node"><title>ActsAsTaggableOn::Tagging</title>
<ellipse fill="none" stroke="black" cx="306" cy="-359" rx="123.097" ry="18"/>
<text text-anchor="middle" x="306" y="-353.4" font-family="Times,serif" font-size="14.00">ActsAsTaggableOn::Tagging</text>
</g>
<!-- Document&#45;&gt;ActsAsTaggableOn::Tagging -->
<g id="edge5" class="edge"><title>Document&#45;&gt;ActsAsTaggableOn::Tagging</title>
<path fill="none" stroke="#24b580" d="M526.673,-733.463C518.505,-687.615 499.802,-629.2 457,-598 424.955,-574.641 127.883,-608.739 100.559,-580 71.2765,-549.202 131.958,-551.941 143,-544 206.188,-498.556 262.073,-424.475 288.989,-385.625"/>
<ellipse fill="none" stroke="#24b580" cx="527.372" cy="-737.632" rx="4.00001" ry="4.00001"/>
<polygon fill="#24b580" stroke="#24b580" points="289.248,-385.247 298.607,-379.534 292.07,-381.12 294.893,-376.993 294.893,-376.993 294.893,-376.993 292.07,-381.12 291.179,-374.453 289.248,-385.247 289.248,-385.247"/>
<text text-anchor="middle" x="124.721" y="-565.4" font-family="Times,serif" font-size="14.00">taggings</text>
</g>
<!-- Document&#45;&gt;ActsAsTaggableOn::Tagging -->
<g id="edge7" class="edge"><title>Document&#45;&gt;ActsAsTaggableOn::Tagging</title>
<path fill="none" stroke="#a19c5a" d="M526.474,-733.165C518.205,-687.466 499.465,-629.362 457,-598 405.856,-560.228 214.976,-626.351 171.455,-580 112.719,-517.445 217.346,-425.243 273.647,-382.85"/>
<ellipse fill="none" stroke="#a19c5a" cx="527.181" cy="-737.311" rx="4.00001" ry="4.00001"/>
<polygon fill="#a19c5a" stroke="#a19c5a" points="273.874,-382.681 284.587,-380.34 277.89,-379.703 281.907,-376.725 281.907,-376.725 281.907,-376.725 277.89,-379.703 279.226,-373.11 273.874,-382.681 273.874,-382.681"/>
<text text-anchor="middle" x="207.772" y="-565.4" font-family="Times,serif" font-size="14.00">tag_taggings</text>
</g>
<!-- ActsAsTaggableOn::Tag -->
<g id="node25" class="node"><title>ActsAsTaggableOn::Tag</title>
<ellipse fill="none" stroke="black" cx="686" cy="-359" rx="106.344" ry="18"/>
<text text-anchor="middle" x="686" y="-353.4" font-family="Times,serif" font-size="14.00">ActsAsTaggableOn::Tag</text>
</g>
<!-- Document&#45;&gt;ActsAsTaggableOn::Tag -->
<g id="edge6" class="edge"><title>Document&#45;&gt;ActsAsTaggableOn::Tag</title>
<path fill="none" stroke="#689553" d="M545.152,-731.548C554.754,-683.518 569.825,-617.851 589.572,-562 612.799,-496.307 650.794,-423.542 671.475,-385.839"/>
<polygon fill="#689553" stroke="#689553" points="545.12,-731.709 538.771,-740.649 544.153,-736.614 543.186,-741.52 543.186,-741.52 543.186,-741.52 544.153,-736.614 547.601,-742.39 545.12,-731.709 545.12,-731.709"/>
<polygon fill="#689553" stroke="#689553" points="671.504,-385.787 680.279,-379.211 673.922,-381.411 676.341,-377.035 676.341,-377.035 676.341,-377.035 673.922,-381.411 672.402,-374.858 671.504,-385.787 671.504,-385.787"/>
<text text-anchor="middle" x="617.214" y="-565.4" font-family="Times,serif" font-size="14.00">base_tags</text>
</g>
<!-- Document&#45;&gt;ActsAsTaggableOn::Tag -->
<g id="edge8" class="edge"><title>Document&#45;&gt;ActsAsTaggableOn::Tag</title>
<path fill="none" stroke="#3b1f83" d="M532.601,-731.352C534.205,-682.956 540.301,-616.93 559.448,-562 583.786,-492.178 635.799,-421.419 664.999,-385.044"/>
<polygon fill="#3b1f83" stroke="#3b1f83" points="532.6,-731.405 527.826,-741.277 532.462,-736.403 532.324,-741.401 532.324,-741.401 532.324,-741.401 532.462,-736.403 536.822,-741.525 532.6,-731.405 532.6,-731.405"/>
<polygon fill="#3b1f83" stroke="#3b1f83" points="665.249,-384.737 675.048,-379.815 668.402,-380.857 671.556,-376.977 671.556,-376.977 671.556,-376.977 668.402,-380.857 668.064,-374.139 665.249,-384.737 665.249,-384.737"/>
<text text-anchor="middle" x="571.276" y="-565.4" font-family="Times,serif" font-size="14.00">tags</text>
</g>
<!-- Follower -->
<g id="node13" class="node"><title>Follower</title>
<path fill="none" stroke="black" d="M1279.99,-1.2C1279.99,-1.2 1396.01,-1.2 1396.01,-1.2 1402.01,-1.2 1408.01,-7.2 1408.01,-13.2 1408.01,-13.2 1408.01,-122.8 1408.01,-122.8 1408.01,-128.8 1402.01,-134.8 1396.01,-134.8 1396.01,-134.8 1279.99,-134.8 1279.99,-134.8 1273.99,-134.8 1267.99,-128.8 1267.99,-122.8 1267.99,-122.8 1267.99,-13.2 1267.99,-13.2 1267.99,-7.2 1273.99,-1.2 1279.99,-1.2"/>
<text text-anchor="middle" x="1338" y="-116.8" font-family="Times,serif" font-size="14.00">Follower</text>
<polyline fill="none" stroke="black" points="1267.99,-110 1408.01,-110 "/>
<text text-anchor="start" x="1275.99" y="-92" font-family="Times,serif" font-size="14.00">id :integer</text>
<text text-anchor="start" x="1275.99" y="-75.2" font-family="Times,serif" font-size="14.00">followable_id :integer</text>
<text text-anchor="start" x="1275.99" y="-58.4" font-family="Times,serif" font-size="14.00">followable_type :text</text>
<text text-anchor="start" x="1275.99" y="-41.6" font-family="Times,serif" font-size="14.00">created_at :datetime</text>
<text text-anchor="start" x="1275.99" y="-24.8" font-family="Times,serif" font-size="14.00">updated_at :datetime</text>
<text text-anchor="start" x="1275.99" y="-8" font-family="Times,serif" font-size="14.00">user_id :integer</text>
</g>
<!-- Fulfillment -->
<g id="node14" class="node"><title>Fulfillment</title>
<path fill="none" stroke="black" d="M2089.77,-1133.6C2089.77,-1133.6 2204.23,-1133.6 2204.23,-1133.6 2210.23,-1133.6 2216.23,-1139.6 2216.23,-1145.6 2216.23,-1145.6 2216.23,-1238.4 2216.23,-1238.4 2216.23,-1244.4 2210.23,-1250.4 2204.23,-1250.4 2204.23,-1250.4 2089.77,-1250.4 2089.77,-1250.4 2083.77,-1250.4 2077.77,-1244.4 2077.77,-1238.4 2077.77,-1238.4 2077.77,-1145.6 2077.77,-1145.6 2077.77,-1139.6 2083.77,-1133.6 2089.77,-1133.6"/>
<text text-anchor="middle" x="2147" y="-1232.4" font-family="Times,serif" font-size="14.00">Fulfillment</text>
<polyline fill="none" stroke="black" points="2077.77,-1225.6 2216.23,-1225.6 "/>
<text text-anchor="start" x="2085.77" y="-1207.6" font-family="Times,serif" font-size="14.00">id :integer</text>
<text text-anchor="start" x="2085.77" y="-1190.8" font-family="Times,serif" font-size="14.00">machine_id :integer</text>
<text text-anchor="start" x="2085.77" y="-1174" font-family="Times,serif" font-size="14.00">workorder_id :integer</text>
<text text-anchor="start" x="2085.77" y="-1157.2" font-family="Times,serif" font-size="14.00">created_at :datetime</text>
<text text-anchor="start" x="2085.77" y="-1140.4" font-family="Times,serif" font-size="14.00">updated_at :datetime</text>
</g>
<!-- Machine -->
<g id="node15" class="node"><title>Machine</title>
<path fill="none" stroke="black" d="M1931.98,-1116.8C1931.98,-1116.8 2048.02,-1116.8 2048.02,-1116.8 2054.02,-1116.8 2060.02,-1122.8 2060.02,-1128.8 2060.02,-1128.8 2060.02,-1255.2 2060.02,-1255.2 2060.02,-1261.2 2054.02,-1267.2 2048.02,-1267.2 2048.02,-1267.2 1931.98,-1267.2 1931.98,-1267.2 1925.98,-1267.2 1919.98,-1261.2 1919.98,-1255.2 1919.98,-1255.2 1919.98,-1128.8 1919.98,-1128.8 1919.98,-1122.8 1925.98,-1116.8 1931.98,-1116.8"/>
<text text-anchor="middle" x="1990" y="-1249.2" font-family="Times,serif" font-size="14.00">Machine</text>
<polyline fill="none" stroke="black" points="1919.98,-1242.4 2060.02,-1242.4 "/>
<text text-anchor="start" x="1927.98" y="-1224.4" font-family="Times,serif" font-size="14.00">id :integer</text>
<text text-anchor="start" x="1927.98" y="-1207.6" font-family="Times,serif" font-size="14.00">model_number :string</text>
<text text-anchor="start" x="1927.98" y="-1190.8" font-family="Times,serif" font-size="14.00">serial_number :string</text>
<text text-anchor="start" x="1927.98" y="-1174" font-family="Times,serif" font-size="14.00">option_id :integer</text>
<text text-anchor="start" x="1927.98" y="-1157.2" font-family="Times,serif" font-size="14.00">misc_notes :string</text>
<text text-anchor="start" x="1927.98" y="-1140.4" font-family="Times,serif" font-size="14.00">created_at :datetime</text>
<text text-anchor="start" x="1927.98" y="-1123.6" font-family="Times,serif" font-size="14.00">updated_at :datetime</text>
</g>
<!-- Workorder -->
<g id="node23" class="node"><title>Workorder</title>
<path fill="none" stroke="black" d="M1372.38,-598.8C1372.38,-598.8 1501.62,-598.8 1501.62,-598.8 1507.62,-598.8 1513.62,-604.8 1513.62,-610.8 1513.62,-610.8 1513.62,-989.2 1513.62,-989.2 1513.62,-995.2 1507.62,-1001.2 1501.62,-1001.2 1501.62,-1001.2 1372.38,-1001.2 1372.38,-1001.2 1366.38,-1001.2 1360.38,-995.2 1360.38,-989.2 1360.38,-989.2 1360.38,-610.8 1360.38,-610.8 1360.38,-604.8 1366.38,-598.8 1372.38,-598.8"/>
<text text-anchor="middle" x="1437" y="-983.2" font-family="Times,serif" font-size="14.00">Workorder</text>
<polyline fill="none" stroke="black" points="1360.38,-976.4 1513.62,-976.4 "/>
<text text-anchor="start" x="1368.38" y="-958.4" font-family="Times,serif" font-size="14.00">id :integer</text>
<text text-anchor="start" x="1368.38" y="-941.6" font-family="Times,serif" font-size="14.00">customer :string</text>
<text text-anchor="start" x="1368.38" y="-924.8" font-family="Times,serif" font-size="14.00">user_id :integer</text>
<text text-anchor="start" x="1368.38" y="-908" font-family="Times,serif" font-size="14.00">created_at :datetime</text>
<text text-anchor="start" x="1368.38" y="-891.2" font-family="Times,serif" font-size="14.00">updated_at :datetime</text>
<text text-anchor="start" x="1368.38" y="-874.4" font-family="Times,serif" font-size="14.00">street :string</text>
<text text-anchor="start" x="1368.38" y="-857.6" font-family="Times,serif" font-size="14.00">city :string</text>
<text text-anchor="start" x="1368.38" y="-840.8" font-family="Times,serif" font-size="14.00">state :string</text>
<text text-anchor="start" x="1368.38" y="-824" font-family="Times,serif" font-size="14.00">wo_date :datetime</text>
<text text-anchor="start" x="1368.38" y="-807.2" font-family="Times,serif" font-size="14.00">wo_start :time</text>
<text text-anchor="start" x="1368.38" y="-790.4" font-family="Times,serif" font-size="14.00">wo_duration :integer</text>
<text text-anchor="start" x="1368.38" y="-773.6" font-family="Times,serif" font-size="14.00">contact :string</text>
<text text-anchor="start" x="1368.38" y="-756.8" font-family="Times,serif" font-size="14.00">phonenumber :integer</text>
<text text-anchor="start" x="1368.38" y="-740" font-family="Times,serif" font-size="14.00">misc_notes :string</text>
<text text-anchor="start" x="1368.38" y="-723.2" font-family="Times,serif" font-size="14.00">branch :integer</text>
<text text-anchor="start" x="1368.38" y="-706.4" font-family="Times,serif" font-size="14.00">completed :boolean</text>
<text text-anchor="start" x="1368.38" y="-689.6" font-family="Times,serif" font-size="14.00">wo_type :string</text>
<text text-anchor="start" x="1368.38" y="-672.8" font-family="Times,serif" font-size="14.00">latitude :float</text>
<text text-anchor="start" x="1368.38" y="-656" font-family="Times,serif" font-size="14.00">longitude :float</text>
<text text-anchor="start" x="1368.38" y="-639.2" font-family="Times,serif" font-size="14.00">gmaps :boolean</text>
<text text-anchor="start" x="1368.38" y="-622.4" font-family="Times,serif" font-size="14.00">assigned_to :integer</text>
<text text-anchor="start" x="1368.38" y="-605.6" font-family="Times,serif" font-size="14.00">followers_count :integer</text>
</g>
<!-- Machine&#45;&gt;Workorder -->
<g id="edge11" class="edge"><title>Machine&#45;&gt;Workorder</title>
<path fill="none" stroke="#1ac382" d="M1911.56,-1135.68C1808.66,-1063.11 1628.75,-936.231 1522.48,-861.282"/>
<polygon fill="#1ac382" stroke="#1ac382" points="1911.79,-1135.84 1917.37,-1145.28 1915.88,-1138.72 1919.96,-1141.61 1919.96,-1141.61 1919.96,-1141.61 1915.88,-1138.72 1922.56,-1137.93 1911.79,-1135.84 1911.79,-1135.84"/>
<polygon fill="#1ac382" stroke="#1ac382" points="1522.18,-861.073 1516.6,-851.632 1518.09,-858.191 1514.01,-855.31 1514.01,-855.31 1514.01,-855.31 1518.09,-858.191 1511.41,-858.987 1522.18,-861.073 1522.18,-861.073"/>
</g>
<!-- Part -->
<g id="node17" class="node"><title>Part</title>
<path fill="none" stroke="black" d="M176.495,-691.2C176.495,-691.2 285.505,-691.2 285.505,-691.2 291.505,-691.2 297.505,-697.2 297.505,-703.2 297.505,-703.2 297.505,-896.8 297.505,-896.8 297.505,-902.8 291.505,-908.8 285.505,-908.8 285.505,-908.8 176.495,-908.8 176.495,-908.8 170.495,-908.8 164.495,-902.8 164.495,-896.8 164.495,-896.8 164.495,-703.2 164.495,-703.2 164.495,-697.2 170.495,-691.2 176.495,-691.2"/>
<text text-anchor="middle" x="231" y="-890.8" font-family="Times,serif" font-size="14.00">Part</text>
<polyline fill="none" stroke="black" points="164.495,-884 297.505,-884 "/>
<text text-anchor="start" x="172.495" y="-866" font-family="Times,serif" font-size="14.00">id :integer</text>
<text text-anchor="start" x="172.495" y="-849.2" font-family="Times,serif" font-size="14.00">name :string</text>
<text text-anchor="start" x="172.495" y="-832.4" font-family="Times,serif" font-size="14.00">qty :integer</text>
<text text-anchor="start" x="172.495" y="-815.6" font-family="Times,serif" font-size="14.00">comment :text</text>
<text text-anchor="start" x="172.495" y="-798.8" font-family="Times,serif" font-size="14.00">user_id :integer</text>
<text text-anchor="start" x="172.495" y="-782" font-family="Times,serif" font-size="14.00">branch :integer</text>
<text text-anchor="start" x="172.495" y="-765.2" font-family="Times,serif" font-size="14.00">created_at :datetime</text>
<text text-anchor="start" x="172.495" y="-748.4" font-family="Times,serif" font-size="14.00">updated_at :datetime</text>
<text text-anchor="start" x="172.495" y="-731.6" font-family="Times,serif" font-size="14.00">part_number :string</text>
<text text-anchor="start" x="172.495" y="-714.8" font-family="Times,serif" font-size="14.00">po_number :string</text>
<text text-anchor="start" x="172.495" y="-698" font-family="Times,serif" font-size="14.00">ordered :boolean</text>
</g>
<!-- Post -->
<g id="node18" class="node"><title>Post</title>
<path fill="none" stroke="black" d="M782.222,-724.8C782.222,-724.8 899.778,-724.8 899.778,-724.8 905.778,-724.8 911.778,-730.8 911.778,-736.8 911.778,-736.8 911.778,-863.2 911.778,-863.2 911.778,-869.2 905.778,-875.2 899.778,-875.2 899.778,-875.2 782.222,-875.2 782.222,-875.2 776.222,-875.2 770.222,-869.2 770.222,-863.2 770.222,-863.2 770.222,-736.8 770.222,-736.8 770.222,-730.8 776.222,-724.8 782.222,-724.8"/>
<text text-anchor="middle" x="841" y="-857.2" font-family="Times,serif" font-size="14.00">Post</text>
<polyline fill="none" stroke="black" points="770.222,-850.4 911.778,-850.4 "/>
<text text-anchor="start" x="778.222" y="-832.4" font-family="Times,serif" font-size="14.00">id :integer</text>
<text text-anchor="start" x="778.222" y="-815.6" font-family="Times,serif" font-size="14.00">content :text</text>
<text text-anchor="start" x="778.222" y="-798.8" font-family="Times,serif" font-size="14.00">title :string</text>
<text text-anchor="start" x="778.222" y="-782" font-family="Times,serif" font-size="14.00">user_id :integer</text>
<text text-anchor="start" x="778.222" y="-765.2" font-family="Times,serif" font-size="14.00">created_at :datetime</text>
<text text-anchor="start" x="778.222" y="-748.4" font-family="Times,serif" font-size="14.00">updated_at :datetime</text>
<text text-anchor="start" x="778.222" y="-731.6" font-family="Times,serif" font-size="14.00">rendered_content :text</text>
</g>
<!-- Post&#45;&gt;Comment -->
<g id="edge16" class="edge"><title>Post&#45;&gt;Comment</title>
<path fill="none" stroke="#b9e81c" d="M871.89,-716.814C901.185,-638.873 944.988,-522.329 974.486,-443.846"/>
<ellipse fill="none" stroke="#b9e81c" cx="870.397" cy="-720.785" rx="4.00001" ry="4.00001"/>
<polygon fill="#b9e81c" stroke="#b9e81c" points="974.492,-443.829 982.223,-436.052 976.252,-439.149 978.011,-434.468 978.011,-434.468 978.011,-434.468 976.252,-439.149 973.798,-432.885 974.492,-443.829 974.492,-443.829"/>
</g>
<!-- Post&#45;&gt;ActsAsTaggableOn::Tagging -->
<g id="edge12" class="edge"><title>Post&#45;&gt;ActsAsTaggableOn::Tagging</title>
<path fill="none" stroke="#7e06b7" d="M828.246,-716.751C814.602,-660.907 786.682,-591.965 730,-562 667.127,-528.762 637.564,-569.041 571,-544 472.093,-506.791 375.035,-424.485 330.824,-383.766"/>
<ellipse fill="none" stroke="#7e06b7" cx="829.162" cy="-720.644" rx="4.00001" ry="4.00001"/>
<polygon fill="#7e06b7" stroke="#7e06b7" points="330.765,-383.711 326.508,-373.605 327.104,-380.305 323.443,-376.9 323.443,-376.9 323.443,-376.9 327.104,-380.305 320.378,-380.195 330.765,-383.711 330.765,-383.711"/>
<text text-anchor="middle" x="776.721" y="-565.4" font-family="Times,serif" font-size="14.00">taggings</text>
</g>
<!-- Post&#45;&gt;ActsAsTaggableOn::Tagging -->
<g id="edge14" class="edge"><title>Post&#45;&gt;ActsAsTaggableOn::Tagging</title>
<path fill="none" stroke="#6c1e88" d="M829.489,-716.848C819.019,-674.314 799.052,-625.63 761,-598 710.449,-561.294 535.803,-608.971 480.455,-580 397.628,-536.646 340.99,-434.775 317.788,-386.398"/>
<ellipse fill="none" stroke="#6c1e88" cx="830.421" cy="-720.818" rx="4.00001" ry="4.00001"/>
<polygon fill="#6c1e88" stroke="#6c1e88" points="317.719,-386.251 317.545,-375.286 315.595,-381.724 313.471,-377.198 313.471,-377.198 313.471,-377.198 315.595,-381.724 309.398,-379.109 317.719,-386.251 317.719,-386.251"/>
<text text-anchor="middle" x="516.772" y="-565.4" font-family="Times,serif" font-size="14.00">tag_taggings</text>
</g>
<!-- Post&#45;&gt;ActsAsTaggableOn::Tag -->
<g id="edge13" class="edge"><title>Post&#45;&gt;ActsAsTaggableOn::Tag</title>
<path fill="none" stroke="#7b54b5" d="M843.04,-714.414C841.729,-668.214 836.074,-610.667 819,-562 794.123,-491.093 739.029,-420.605 708.124,-384.604"/>
<polygon fill="#7b54b5" stroke="#7b54b5" points="843.047,-714.695 838.768,-724.792 843.157,-719.694 843.267,-724.693 843.267,-724.693 843.267,-724.693 843.157,-719.694 847.766,-724.594 843.047,-714.695 843.047,-714.695"/>
<polygon fill="#7b54b5" stroke="#7b54b5" points="708.111,-384.589 704.947,-374.089 704.831,-380.815 701.551,-377.042 701.551,-377.042 701.551,-377.042 704.831,-380.815 698.155,-379.994 708.111,-384.589 708.111,-384.589"/>
<text text-anchor="middle" x="850.214" y="-565.4" font-family="Times,serif" font-size="14.00">base_tags</text>
</g>
<!-- Post&#45;&gt;ActsAsTaggableOn::Tag -->
<g id="edge15" class="edge"><title>Post&#45;&gt;ActsAsTaggableOn::Tag</title>
<path fill="none" stroke="#39c7b1" d="M876.852,-714.959C891.373,-668.526 900.624,-610.583 881,-562 848.432,-481.372 766.56,-415.022 719.915,-382.206"/>
<polygon fill="#39c7b1" stroke="#39c7b1" points="876.781,-715.177 869.404,-723.29 875.232,-719.931 873.682,-724.685 873.682,-724.685 873.682,-724.685 875.232,-719.931 877.961,-726.079 876.781,-715.177 876.781,-715.177"/>
<polygon fill="#39c7b1" stroke="#39c7b1" points="719.857,-382.165 714.197,-372.773 715.746,-379.319 711.635,-376.472 711.635,-376.472 711.635,-376.472 715.746,-379.319 709.074,-380.172 719.857,-382.165 719.857,-382.165"/>
<text text-anchor="middle" x="897.276" y="-565.4" font-family="Times,serif" font-size="14.00">tags</text>
</g>
<!-- Task -->
<g id="node19" class="node"><title>Task</title>
<path fill="none" stroke="black" d="M1203,-208.2C1203,-208.2 1333,-208.2 1333,-208.2 1339,-208.2 1345,-214.2 1345,-220.2 1345,-220.2 1345,-497.8 1345,-497.8 1345,-503.8 1339,-509.8 1333,-509.8 1333,-509.8 1203,-509.8 1203,-509.8 1197,-509.8 1191,-503.8 1191,-497.8 1191,-497.8 1191,-220.2 1191,-220.2 1191,-214.2 1197,-208.2 1203,-208.2"/>
<text text-anchor="middle" x="1268" y="-491.8" font-family="Times,serif" font-size="14.00">Task</text>
<polyline fill="none" stroke="black" points="1191,-485 1345,-485 "/>
<text text-anchor="start" x="1199" y="-467" font-family="Times,serif" font-size="14.00">id :integer</text>
<text text-anchor="start" x="1199" y="-450.2" font-family="Times,serif" font-size="14.00">content :text</text>
<text text-anchor="start" x="1199" y="-433.4" font-family="Times,serif" font-size="14.00">taskable_id :integer</text>
<text text-anchor="start" x="1199" y="-416.6" font-family="Times,serif" font-size="14.00">taskable_type :string</text>
<text text-anchor="start" x="1199" y="-399.8" font-family="Times,serif" font-size="14.00">assigned_to :integer</text>
<text text-anchor="start" x="1199" y="-383" font-family="Times,serif" font-size="14.00">created_at :datetime</text>
<text text-anchor="start" x="1199" y="-366.2" font-family="Times,serif" font-size="14.00">updated_at :datetime</text>
<text text-anchor="start" x="1199" y="-349.4" font-family="Times,serif" font-size="14.00">branch :integer</text>
<text text-anchor="start" x="1199" y="-332.6" font-family="Times,serif" font-size="14.00">completed :boolean</text>
<text text-anchor="start" x="1199" y="-315.8" font-family="Times,serif" font-size="14.00">notes :text</text>
<text text-anchor="start" x="1199" y="-299" font-family="Times,serif" font-size="14.00">context :string</text>
<text text-anchor="start" x="1199" y="-282.2" font-family="Times,serif" font-size="14.00">due_date :date</text>
<text text-anchor="start" x="1199" y="-265.4" font-family="Times,serif" font-size="14.00">sleep :date</text>
<text text-anchor="start" x="1199" y="-248.6" font-family="Times,serif" font-size="14.00">reminder_date :date</text>
<text text-anchor="start" x="1199" y="-231.8" font-family="Times,serif" font-size="14.00">reminder_time :datetime</text>
<text text-anchor="start" x="1199" y="-215" font-family="Times,serif" font-size="14.00">followers_count :integer</text>
</g>
<!-- Task&#45;&gt;Follower -->
<g id="edge17" class="edge"><title>Task&#45;&gt;Follower</title>
<path fill="none" stroke="#70cd33" d="M1306.23,-200.177C1310.89,-180.935 1315.47,-162.011 1319.64,-144.785"/>
<ellipse fill="none" stroke="#70cd33" cx="1305.27" cy="-204.11" rx="4.00001" ry="4.00001"/>
<polygon fill="#70cd33" stroke="#70cd33" points="1319.7,-144.568 1326.42,-135.908 1320.87,-139.709 1322.05,-134.849 1322.05,-134.849 1322.05,-134.849 1320.87,-139.709 1317.68,-133.79 1319.7,-144.568 1319.7,-144.568"/>
</g>
<!-- Update -->
<g id="node20" class="node"><title>Update</title>
<path fill="none" stroke="black" d="M327.495,-741.6C327.495,-741.6 436.505,-741.6 436.505,-741.6 442.505,-741.6 448.505,-747.6 448.505,-753.6 448.505,-753.6 448.505,-846.4 448.505,-846.4 448.505,-852.4 442.505,-858.4 436.505,-858.4 436.505,-858.4 327.495,-858.4 327.495,-858.4 321.495,-858.4 315.495,-852.4 315.495,-846.4 315.495,-846.4 315.495,-753.6 315.495,-753.6 315.495,-747.6 321.495,-741.6 327.495,-741.6"/>
<text text-anchor="middle" x="382" y="-840.4" font-family="Times,serif" font-size="14.00">Update</text>
<polyline fill="none" stroke="black" points="315.495,-833.6 448.505,-833.6 "/>
<text text-anchor="start" x="323.495" y="-815.6" font-family="Times,serif" font-size="14.00">id :integer</text>
<text text-anchor="start" x="323.495" y="-798.8" font-family="Times,serif" font-size="14.00">feed_item :string</text>
<text text-anchor="start" x="323.495" y="-782" font-family="Times,serif" font-size="14.00">created_at :datetime</text>
<text text-anchor="start" x="323.495" y="-765.2" font-family="Times,serif" font-size="14.00">updated_at :datetime</text>
<text text-anchor="start" x="323.495" y="-748.4" font-family="Times,serif" font-size="14.00">user_id :integer</text>
</g>
<!-- User -->
<g id="node21" class="node"><title>User</title>
<path fill="none" stroke="black" d="M876.936,-1041.2C876.936,-1041.2 1003.06,-1041.2 1003.06,-1041.2 1009.06,-1041.2 1015.06,-1047.2 1015.06,-1053.2 1015.06,-1053.2 1015.06,-1330.8 1015.06,-1330.8 1015.06,-1336.8 1009.06,-1342.8 1003.06,-1342.8 1003.06,-1342.8 876.936,-1342.8 876.936,-1342.8 870.936,-1342.8 864.936,-1336.8 864.936,-1330.8 864.936,-1330.8 864.936,-1053.2 864.936,-1053.2 864.936,-1047.2 870.936,-1041.2 876.936,-1041.2"/>
<text text-anchor="middle" x="940" y="-1324.8" font-family="Times,serif" font-size="14.00">User</text>
<polyline fill="none" stroke="black" points="864.936,-1318 1015.06,-1318 "/>
<text text-anchor="start" x="872.936" y="-1300" font-family="Times,serif" font-size="14.00">id :integer</text>
<text text-anchor="start" x="872.936" y="-1283.2" font-family="Times,serif" font-size="14.00">name :string</text>
<text text-anchor="start" x="872.936" y="-1266.4" font-family="Times,serif" font-size="14.00">email :string</text>
<text text-anchor="start" x="872.936" y="-1249.6" font-family="Times,serif" font-size="14.00">admin :boolean</text>
<text text-anchor="start" x="872.936" y="-1232.8" font-family="Times,serif" font-size="14.00">role :string</text>
<text text-anchor="start" x="872.936" y="-1216" font-family="Times,serif" font-size="14.00">created_at :datetime</text>
<text text-anchor="start" x="872.936" y="-1199.2" font-family="Times,serif" font-size="14.00">updated_at :datetime</text>
<text text-anchor="start" x="872.936" y="-1182.4" font-family="Times,serif" font-size="14.00">password_digest :string</text>
<text text-anchor="start" x="872.936" y="-1165.6" font-family="Times,serif" font-size="14.00">remember_token :string</text>
<text text-anchor="start" x="872.936" y="-1148.8" font-family="Times,serif" font-size="14.00">current_branch :integer</text>
<text text-anchor="start" x="872.936" y="-1132" font-family="Times,serif" font-size="14.00">phone_number :string</text>
<text text-anchor="start" x="872.936" y="-1115.2" font-family="Times,serif" font-size="14.00">texts :boolean</text>
<text text-anchor="start" x="872.936" y="-1098.4" font-family="Times,serif" font-size="14.00">signature :text</text>
<text text-anchor="start" x="872.936" y="-1081.6" font-family="Times,serif" font-size="14.00">receive_mails :boolean</text>
<text text-anchor="start" x="872.936" y="-1064.8" font-family="Times,serif" font-size="14.00">active :boolean</text>
<text text-anchor="start" x="872.936" y="-1048" font-family="Times,serif" font-size="14.00">super_user :boolean</text>
</g>
<!-- User&#45;&gt;Assetnote -->
<g id="edge20" class="edge"><title>User&#45;&gt;Assetnote</title>
<path fill="none" stroke="#d60e73" d="M1023.53,-1177.69C1141.99,-1155.89 1362.17,-1104.34 1522,-1002 1755.35,-852.578 1835.71,-798.627 1945,-544 2001.35,-412.711 1995.73,-242.119 1986.14,-145.184"/>
<ellipse fill="none" stroke="#d60e73" cx="1019.46" cy="-1178.43" rx="4.00001" ry="4.00001"/>
<polygon fill="#d60e73" stroke="#d60e73" points="1986.13,-145.122 1989.58,-134.713 1985.62,-140.148 1985.11,-135.174 1985.11,-135.174 1985.11,-135.174 1985.62,-140.148 1980.63,-135.635 1986.13,-145.122 1986.13,-145.122"/>
</g>
<!-- User&#45;&gt;Branch -->
<g id="edge27" class="edge"><title>User&#45;&gt;Branch</title>
<path fill="none" stroke="#0777b5" d="M981.682,-1033.17C996.848,-975.751 1013.19,-913.862 1025.19,-868.433"/>
<ellipse fill="none" stroke="#0777b5" cx="980.623" cy="-1037.19" rx="4.00001" ry="4.00001"/>
<polygon fill="#0777b5" stroke="#0777b5" points="1025.21,-868.375 1032.11,-859.856 1026.48,-863.541 1027.76,-858.707 1027.76,-858.707 1027.76,-858.707 1026.48,-863.541 1023.41,-857.558 1025.21,-868.375 1025.21,-868.375"/>
</g>
<!-- User&#45;&gt;Bug -->
<g id="edge21" class="edge"><title>User&#45;&gt;Bug</title>
<path fill="none" stroke="#3b2b49" d="M1021.73,-1122.68C1057.77,-1089.24 1098.36,-1046.61 1127,-1002 1148.19,-969.001 1164.79,-929.212 1177,-893.773"/>
<ellipse fill="none" stroke="#3b2b49" cx="1018.47" cy="-1125.68" rx="4.00002" ry="4.00002"/>
<polygon fill="#3b2b49" stroke="#3b2b49" points="1177.13,-893.378 1184.59,-885.34 1178.73,-888.64 1180.33,-883.902 1180.33,-883.902 1180.33,-883.902 1178.73,-888.64 1176.06,-882.465 1177.13,-893.378 1177.13,-893.378"/>
</g>
<!-- User&#45;&gt;Comment -->
<g id="edge23" class="edge"><title>User&#45;&gt;Comment</title>
<path fill="none" stroke="#7df9f5" d="M938.085,-1032.76C938.326,-913.009 942.279,-744.688 959,-598 964.877,-546.441 975.984,-489.382 985.925,-444.06"/>
<ellipse fill="none" stroke="#7df9f5" cx="938.079" cy="-1036.93" rx="4" ry="4"/>
<polygon fill="#7df9f5" stroke="#7df9f5" points="985.929,-444.043 992.486,-435.253 987.011,-439.161 988.092,-434.28 988.092,-434.28 988.092,-434.28 987.011,-439.161 983.699,-433.306 985.929,-444.043 985.929,-444.043"/>
</g>
<!-- User&#45;&gt;DayOff -->
<g id="edge26" class="edge"><title>User&#45;&gt;DayOff</title>
<path fill="none" stroke="#55140a" d="M856.619,-1180.89C676.628,-1157.51 259.502,-1094.58 155,-1002 123.644,-974.222 105.364,-932.056 94.7218,-893.506"/>
<ellipse fill="none" stroke="#55140a" cx="860.781" cy="-1181.42" rx="4.00001" ry="4.00001"/>
<polygon fill="#55140a" stroke="#55140a" points="94.7118,-893.468 96.5306,-882.654 93.4447,-888.631 92.1775,-883.794 92.1775,-883.794 92.1775,-883.794 93.4447,-888.631 87.8244,-884.935 94.7118,-893.468 94.7118,-893.468"/>
</g>
<!-- User&#45;&gt;Part -->
<g id="edge22" class="edge"><title>User&#45;&gt;Part</title>
<path fill="none" stroke="#1b7bf2" d="M856.573,-1188.93C723.202,-1181.19 461.228,-1147.1 306,-1002 282.143,-979.699 265.83,-949.096 254.692,-918.494"/>
<ellipse fill="none" stroke="#1b7bf2" cx="860.785" cy="-1189.17" rx="4" ry="4"/>
<polygon fill="#1b7bf2" stroke="#1b7bf2" points="254.678,-918.453 255.65,-907.53 253.038,-913.729 251.399,-909.006 251.399,-909.006 251.399,-909.006 253.038,-913.729 247.148,-910.481 254.678,-918.453 254.678,-918.453"/>
</g>
<!-- User&#45;&gt;Post -->
<g id="edge25" class="edge"><title>User&#45;&gt;Post</title>
<path fill="none" stroke="#66db1c" d="M899.901,-1033.03C887.051,-982.413 873.324,-928.337 862.357,-885.133"/>
<ellipse fill="none" stroke="#66db1c" cx="900.952" cy="-1037.18" rx="4.00001" ry="4.00001"/>
<polygon fill="#66db1c" stroke="#66db1c" points="862.307,-884.934 864.208,-874.135 861.076,-880.088 859.846,-875.242 859.846,-875.242 859.846,-875.242 861.076,-880.088 855.484,-876.349 862.307,-884.934 862.307,-884.934"/>
</g>
<!-- User&#45;&gt;Task -->
<g id="edge28" class="edge"><title>User&#45;&gt;Task</title>
<path fill="none" stroke="#46aad0" d="M1023.12,-1170.61C1104.31,-1145.78 1223.38,-1095.12 1278,-1002 1363.64,-855.988 1344.16,-657.3 1314.14,-519.807"/>
<ellipse fill="none" stroke="#46aad0" cx="1019.21" cy="-1171.78" rx="4.00001" ry="4.00001"/>
<polygon fill="#46aad0" stroke="#46aad0" points="1314.13,-519.776 1316.35,-509.038 1313.05,-514.896 1311.96,-510.015 1311.96,-510.015 1311.96,-510.015 1313.05,-514.896 1307.57,-510.992 1314.13,-519.776 1314.13,-519.776"/>
</g>
<!-- User&#45;&gt;Update -->
<g id="edge19" class="edge"><title>User&#45;&gt;Update</title>
<path fill="none" stroke="#ed7217" d="M856.402,-1179.53C749.961,-1160.7 566.733,-1113.49 457,-1002 421.49,-965.922 402.545,-911.497 392.585,-868.376"/>
<ellipse fill="none" stroke="#ed7217" cx="860.621" cy="-1180.26" rx="4.00001" ry="4.00001"/>
<polygon fill="#ed7217" stroke="#ed7217" points="392.566,-868.286 394.813,-857.553 391.492,-863.402 390.418,-858.519 390.418,-858.519 390.418,-858.519 391.492,-863.402 386.023,-859.486 392.566,-868.286 392.566,-868.286"/>
</g>
<!-- Video -->
<g id="node22" class="node"><title>Video</title>
<path fill="none" stroke="black" d="M629.322,-716.4C629.322,-716.4 740.678,-716.4 740.678,-716.4 746.678,-716.4 752.678,-722.4 752.678,-728.4 752.678,-728.4 752.678,-871.6 752.678,-871.6 752.678,-877.6 746.678,-883.6 740.678,-883.6 740.678,-883.6 629.322,-883.6 629.322,-883.6 623.322,-883.6 617.322,-877.6 617.322,-871.6 617.322,-871.6 617.322,-728.4 617.322,-728.4 617.322,-722.4 623.322,-716.4 629.322,-716.4"/>
<text text-anchor="middle" x="685" y="-865.6" font-family="Times,serif" font-size="14.00">Video</text>
<polyline fill="none" stroke="black" points="617.322,-858.8 752.678,-858.8 "/>
<text text-anchor="start" x="625.322" y="-840.8" font-family="Times,serif" font-size="14.00">id :integer</text>
<text text-anchor="start" x="625.322" y="-824" font-family="Times,serif" font-size="14.00">title :string</text>
<text text-anchor="start" x="625.322" y="-807.2" font-family="Times,serif" font-size="14.00">description :text</text>
<text text-anchor="start" x="625.322" y="-790.4" font-family="Times,serif" font-size="14.00">yt_video_id :string</text>
<text text-anchor="start" x="625.322" y="-773.6" font-family="Times,serif" font-size="14.00">is_complete :boolean</text>
<text text-anchor="start" x="625.322" y="-756.8" font-family="Times,serif" font-size="14.00">user_id :integer</text>
<text text-anchor="start" x="625.322" y="-740" font-family="Times,serif" font-size="14.00">created_at :datetime</text>
<text text-anchor="start" x="625.322" y="-723.2" font-family="Times,serif" font-size="14.00">updated_at :datetime</text>
</g>
<!-- User&#45;&gt;Video -->
<g id="edge24" class="edge"><title>User&#45;&gt;Video</title>
<path fill="none" stroke="#3660d3" d="M858.911,-1119.18C825.198,-1086.09 787.772,-1044.71 761,-1002 740.174,-968.771 723.636,-928.941 711.378,-893.534"/>
<ellipse fill="none" stroke="#3660d3" cx="861.856" cy="-1122.05" rx="4.00002" ry="4.00002"/>
<polygon fill="#3660d3" stroke="#3660d3" points="711.245,-893.144 712.295,-882.228 709.639,-888.409 708.033,-883.674 708.033,-883.674 708.033,-883.674 709.639,-888.409 703.772,-885.119 711.245,-893.144 711.245,-893.144"/>
</g>
<!-- User&#45;&gt;Workorder -->
<g id="edge18" class="edge"><title>User&#45;&gt;Workorder</title>
<path fill="none" stroke="#f8340a" d="M1022.99,-1169.67C1104.52,-1145.26 1228.49,-1098.44 1312,-1022 1327.65,-1007.68 1341.83,-990.926 1354.55,-973.169"/>
<ellipse fill="none" stroke="#f8340a" cx="1019.08" cy="-1170.83" rx="4.00001" ry="4.00001"/>
<polygon fill="#f8340a" stroke="#f8340a" points="1354.56,-973.146 1363.98,-967.52 1357.43,-969.045 1360.29,-964.945 1360.29,-964.945 1360.29,-964.945 1357.43,-969.045 1356.6,-962.37 1354.56,-973.146 1354.56,-973.146"/>
</g>
<!-- Video&#45;&gt;Comment -->
<g id="edge33" class="edge"><title>Video&#45;&gt;Comment</title>
<path fill="none" stroke="#034fcc" d="M697.666,-708.251C708.017,-668.327 726.825,-624.56 761,-598 817.502,-554.088 864.34,-623.708 921,-580 962.996,-547.603 984.256,-491.664 995.011,-444.302"/>
<ellipse fill="none" stroke="#034fcc" cx="696.666" cy="-712.295" rx="4.00001" ry="4.00001"/>
<polygon fill="#034fcc" stroke="#034fcc" points="995.051,-444.115 1001.55,-435.282 996.101,-439.226 997.15,-434.337 997.15,-434.337 997.15,-434.337 996.101,-439.226 992.75,-433.393 995.051,-444.115 995.051,-444.115"/>
</g>
<!-- Video&#45;&gt;ActsAsTaggableOn::Tagging -->
<g id="edge29" class="edge"><title>Video&#45;&gt;ActsAsTaggableOn::Tagging</title>
<path fill="none" stroke="#5b75f3" d="M672.811,-708.271C662.468,-667.872 643.346,-623.703 608,-598 577.185,-575.592 291.784,-607.64 265.559,-580 214.795,-526.498 261.607,-431.3 289.158,-385.716"/>
<ellipse fill="none" stroke="#5b75f3" cx="673.819" cy="-712.407" rx="4.00001" ry="4.00001"/>
<polygon fill="#5b75f3" stroke="#5b75f3" points="289.273,-385.531 298.365,-379.401 291.907,-381.281 294.54,-377.031 294.54,-377.031 294.54,-377.031 291.907,-381.281 290.715,-374.66 289.273,-385.531 289.273,-385.531"/>
<text text-anchor="middle" x="289.721" y="-565.4" font-family="Times,serif" font-size="14.00">taggings</text>
</g>
<!-- Video&#45;&gt;ActsAsTaggableOn::Tagging -->
<g id="edge31" class="edge"><title>Video&#45;&gt;ActsAsTaggableOn::Tagging</title>
<path fill="none" stroke="#41d190" d="M672.593,-708.241C662.199,-667.957 643.099,-623.892 608,-598 559.333,-562.099 380.716,-621.21 336.455,-580 283.177,-530.394 291.918,-434.303 300.179,-387.269"/>
<ellipse fill="none" stroke="#41d190" cx="673.603" cy="-712.357" rx="4.00001" ry="4.00001"/>
<polygon fill="#41d190" stroke="#41d190" points="300.221,-387.044 306.494,-378.049 301.146,-382.13 302.071,-377.216 302.071,-377.216 302.071,-377.216 301.146,-382.13 297.649,-376.384 300.221,-387.044 300.221,-387.044"/>
<text text-anchor="middle" x="372.772" y="-565.4" font-family="Times,serif" font-size="14.00">tag_taggings</text>
</g>
<!-- Video&#45;&gt;ActsAsTaggableOn::Tag -->
<g id="edge30" class="edge"><title>Video&#45;&gt;ActsAsTaggableOn::Tag</title>
<path fill="none" stroke="#5d25d2" d="M660.099,-706.203C651.132,-662.589 644.183,-609.785 648.572,-562 654.388,-498.694 670.249,-425.618 679.348,-387.066"/>
<polygon fill="#5d25d2" stroke="#5d25d2" points="660.149,-706.439 657.825,-717.156 661.188,-711.33 662.226,-716.221 662.226,-716.221 662.226,-716.221 661.188,-711.33 666.628,-715.286 660.149,-706.439 660.149,-706.439"/>
<polygon fill="#5d25d2" stroke="#5d25d2" points="679.395,-386.87 686.098,-378.192 680.558,-382.008 681.721,-377.145 681.721,-377.145 681.721,-377.145 680.558,-382.008 677.345,-376.098 679.395,-386.87 679.395,-386.87"/>
<text text-anchor="middle" x="676.214" y="-565.4" font-family="Times,serif" font-size="14.00">base_tags</text>
</g>
<!-- Video&#45;&gt;ActsAsTaggableOn::Tag -->
<g id="edge32" class="edge"><title>Video&#45;&gt;ActsAsTaggableOn::Tag</title>
<path fill="none" stroke="#3968d8" d="M697.121,-706.23C701.531,-662.514 705,-609.62 703,-562 700.367,-499.326 693.16,-426.002 689.024,-387.241"/>
<polygon fill="#3968d8" stroke="#3968d8" points="697.111,-706.325 691.6,-715.805 696.594,-711.298 696.076,-716.272 696.076,-716.272 696.076,-716.272 696.594,-711.298 700.552,-716.738 697.111,-706.325 697.111,-706.325"/>
<polygon fill="#3968d8" stroke="#3968d8" points="689.02,-387.205 692.419,-376.779 688.483,-382.233 687.945,-377.262 687.945,-377.262 687.945,-377.262 688.483,-382.233 683.471,-377.746 689.02,-387.205 689.02,-387.205"/>
<text text-anchor="middle" x="715.276" y="-565.4" font-family="Times,serif" font-size="14.00">tags</text>
</g>
<!-- Workorder&#45;&gt;AfterPhoto -->
<g id="edge36" class="edge"><title>Workorder&#45;&gt;AfterPhoto</title>
<path fill="none" stroke="#c0fbf0" d="M1452.66,-590.635C1457.09,-531.752 1461.6,-471.799 1464.9,-427.782"/>
<ellipse fill="none" stroke="#c0fbf0" cx="1452.35" cy="-594.781" rx="4" ry="4"/>
<polygon fill="#c0fbf0" stroke="#c0fbf0" points="1464.91,-427.765 1470.14,-418.131 1465.28,-422.78 1465.66,-417.794 1465.66,-417.794 1465.66,-417.794 1465.28,-422.78 1461.17,-417.456 1464.91,-427.765 1464.91,-427.765"/>
</g>
<!-- Workorder&#45;&gt;Asset -->
<g id="edge34" class="edge"><title>Workorder&#45;&gt;Asset</title>
<path fill="none" stroke="#54d53b" d="M1520.02,-728.614C1575.28,-679.703 1647.77,-611.43 1704,-544 1704.86,-542.968 1705.72,-541.929 1706.58,-540.884"/>
<ellipse fill="none" stroke="#54d53b" cx="1516.71" cy="-731.535" rx="4.00002" ry="4.00002"/>
<polygon fill="#54d53b" stroke="#54d53b" points="1706.86,-540.541 1716.64,-535.594 1710,-536.653 1713.14,-532.764 1713.14,-532.764 1713.14,-532.764 1710,-536.653 1709.64,-529.935 1706.86,-540.541 1706.86,-540.541"/>
</g>
<!-- Workorder&#45;&gt;BeforePhoto -->
<g id="edge35" class="edge"><title>Workorder&#45;&gt;BeforePhoto</title>
<path fill="none" stroke="#336a1c" d="M1516.91,-616.013C1527.4,-591.811 1537.98,-567.318 1548,-544 1564.59,-505.39 1582.94,-462.13 1597.67,-427.261"/>
<ellipse fill="none" stroke="#336a1c" cx="1515.24" cy="-619.844" rx="4.00002" ry="4.00002"/>
<polygon fill="#336a1c" stroke="#336a1c" points="1597.83,-426.871 1605.87,-419.41 1599.78,-422.265 1601.73,-417.659 1601.73,-417.659 1601.73,-417.659 1599.78,-422.265 1597.58,-415.908 1597.83,-426.871 1597.83,-426.871"/>
</g>
<!-- Workorder&#45;&gt;Comment -->
<g id="edge37" class="edge"><title>Workorder&#45;&gt;Comment</title>
<path fill="none" stroke="#5f286b" d="M1355.17,-679.791C1332.2,-651.034 1305.83,-621.778 1278,-598 1240.78,-566.203 1220.67,-574.014 1182,-544 1143.53,-514.141 1105.57,-475.905 1074.82,-442.032"/>
<ellipse fill="none" stroke="#5f286b" cx="1357.84" cy="-683.167" rx="4.00002" ry="4.00002"/>
<polygon fill="#5f286b" stroke="#5f286b" points="1074.66,-441.857 1071.31,-431.415 1071.31,-438.142 1067.96,-434.427 1067.96,-434.427 1067.96,-434.427 1071.31,-438.142 1064.62,-437.44 1074.66,-441.857 1074.66,-441.857"/>
</g>
<!-- Workorder&#45;&gt;Follower -->
<g id="edge39" class="edge"><title>Workorder&#45;&gt;Follower</title>
<path fill="none" stroke="#10b9ba" d="M1398.95,-590.538C1396.46,-574.811 1394.11,-559.166 1392,-544 1369.18,-380.274 1374.9,-337.983 1354,-174 1352.81,-164.633 1351.45,-154.811 1350.04,-145.092"/>
<ellipse fill="none" stroke="#10b9ba" cx="1399.63" cy="-594.818" rx="4.00001" ry="4.00001"/>
<polygon fill="#10b9ba" stroke="#10b9ba" points="1350.02,-144.919 1353.02,-134.371 1349.29,-139.972 1348.56,-135.025 1348.56,-135.025 1348.56,-135.025 1349.29,-139.972 1344.11,-135.679 1350.02,-144.919 1350.02,-144.919"/>
</g>
<!-- Workorder&#45;&gt;Task -->
<g id="edge38" class="edge"><title>Workorder&#45;&gt;Task</title>
<path fill="none" stroke="#32d425" d="M1357.29,-591.948C1347.9,-567.563 1338.44,-542.971 1329.36,-519.383"/>
<ellipse fill="none" stroke="#32d425" cx="1358.85" cy="-595.998" rx="4.00001" ry="4.00001"/>
<polygon fill="#32d425" stroke="#32d425" points="1329.36,-519.378 1329.96,-508.429 1327.56,-514.712 1325.76,-510.046 1325.76,-510.046 1325.76,-510.046 1327.56,-514.712 1321.56,-511.662 1329.36,-519.378 1329.36,-519.378"/>
</g>
</g>
</svg>
